<svg xmlns="http://www.w3.org/2000/svg" width="1200" height="410" viewBox="0 0 1200 410" role="img" aria-labelledby="title desc">
  <title id="title">The portable principle as a backend</title>
  <desc id="desc">Editorial cover for the portable principle series. The geometric motif is illustrative; mathematical statements, hypotheses, and exact examples are in the document below.</desc>
  <defs>
    <linearGradient id="bg" x2="1" y2="1"><stop stop-color="#091924"/><stop offset="1" stop-color="#162f38"/></linearGradient>
    <radialGradient id="light"><stop stop-color="#c49c59" stop-opacity=".15"/><stop offset="1" stop-color="#c49c59" stop-opacity="0"/></radialGradient>
  </defs>
  <rect width="1200" height="410" rx="8" fill="url(#bg)"/>
  <ellipse cx="998" cy="213" rx="220" ry="187" fill="url(#light)"/>
  <path d="M52 51H92" stroke="#d9b77b" stroke-width="3"/>
  <text x="109" y="58" fill="#d9b77b" font-family="Arial, sans-serif" font-size="15" letter-spacing="2.6">V8 / THE EXECUTABLE CONTRACT</text>
  <text x="52" y="157" fill="#f4efe5" font-family="Georgia, 'Times New Roman', serif" font-size="58">The portable principle,</text>
  <text x="52" y="228" fill="#f4efe5" font-family="Georgia, 'Times New Roman', serif" font-size="58">as a backend.</text>
  <text x="55" y="282" fill="#b9cbd0" font-family="Arial, sans-serif" font-size="22">Reproducible requests. Inspectable evidence.</text>
  <g stroke-linejoin="round"><g fill="#173b46" stroke="#88a7af" stroke-width="1.4"><rect x="864" y="91" width="245" height="57" rx="9"/><rect x="886" y="179" width="245" height="57" rx="9"/><rect x="864" y="267" width="245" height="57" rx="9"/></g><path d="M987 148V164H1009V179M1009 236V252H987V267" fill="none" stroke="#d9b77b" stroke-width="2.5"/><g stroke="#b9cbd0" stroke-opacity=".55"><path d="M895 112H1027M895 126H989M917 200H1087M917 214H1039M895 288H1066M895 302H1019"/></g><circle cx="1083" cy="296" r="6" fill="#f5d298"/></g>
  <path d="M52 351H1148" stroke="#77929a" stroke-opacity=".35"/>
  <g font-family="Arial, sans-serif" font-size="14" letter-spacing="2">
    <text x="52" y="384" fill="#d9b77b">01 / STATEMENT</text>
    <text x="350" y="384" fill="#b9cbd0">02 / MECHANISM</text>
    <text x="661" y="384" fill="#b9cbd0">03 / EVIDENCE</text>
    <text x="963" y="384" fill="#b9cbd0">04 / SCOPE</text>
  </g>
</svg>
